<?xml version="1.0" encoding="UTF-8"?>
<svg width="700pt" height="700pt" version="1.1" viewBox="0 0 700 700" xmlns="http://www.w3.org/2000/svg" xmlns:xlink="http://www.w3.org/1999/xlink">
 <defs>
  <symbol id="w" overflow="visible">
   <path d="m8.0469-0.48438c-0.41797 0.21875-0.85156 0.38281-1.2969 0.48438-0.44922 0.11328-0.91797 0.17188-1.4062 0.17188-1.4609 0-2.6172-0.40625-3.4688-1.2188-0.85547-0.82031-1.2812-1.9297-1.2812-3.3281 0-1.3945 0.42578-2.5 1.2812-3.3125 0.85156-0.82031 2.0078-1.2344 3.4688-1.2344 0.48828 0 0.95703 0.058594 1.4062 0.17188 0.44531 0.10547 0.87891 0.26562 1.2969 0.48438v1.8125c-0.41797-0.28125-0.82812-0.48828-1.2344-0.625-0.40625-0.13281-0.83594-0.20312-1.2812-0.20312-0.8125 0-1.4492 0.26172-1.9062 0.78125-0.46094 0.51172-0.6875 1.2188-0.6875 2.125s0.22656 1.6211 0.6875 2.1406c0.45703 0.51172 1.0938 0.76562 1.9062 0.76562 0.44531 0 0.875-0.0625 1.2812-0.1875 0.40625-0.13281 0.81641-0.34766 1.2344-0.64062z"/>
  </symbol>
  <symbol id="b" overflow="visible">
   <path d="m5.8906-4.7812c-0.1875-0.082031-0.375-0.14453-0.5625-0.1875-0.17969-0.039062-0.35547-0.0625-0.53125-0.0625-0.54297 0-0.96094 0.17188-1.25 0.51562-0.29297 0.34375-0.4375 0.83984-0.4375 1.4844v3.0312h-2.0938v-6.5781h2.0938v1.0938c0.26953-0.4375 0.57812-0.75391 0.92188-0.95312 0.35156-0.19531 0.77344-0.29688 1.2656-0.29688 0.070313 0 0.14844 0.007813 0.23438 0.015625 0.082031 0 0.20312 0.011719 0.35938 0.03125z"/>
  </symbol>
  <symbol id="a" overflow="visible">
   <path d="m7.5625-3.2969v0.59375h-4.9062c0.050781 0.49219 0.22656 0.85938 0.53125 1.1094 0.3125 0.25 0.73828 0.375 1.2812 0.375 0.44531 0 0.89844-0.066406 1.3594-0.20312 0.46875-0.13281 0.94141-0.33203 1.4219-0.59375v1.6094c-0.49219 0.1875-0.98438 0.32812-1.4844 0.42188-0.5 0.10156-0.99609 0.15625-1.4844 0.15625-1.1875 0-2.1172-0.30078-2.7812-0.90625-0.65625-0.60156-0.98438-1.4531-0.98438-2.5469 0-1.0703 0.32031-1.9141 0.96875-2.5312 0.64453-0.61328 1.5352-0.92188 2.6719-0.92188 1.0312 0 1.8516 0.3125 2.4688 0.9375 0.625 0.625 0.9375 1.4609 0.9375 2.5zm-2.1562-0.70312c0-0.39453-0.11719-0.71094-0.34375-0.95312-0.23047-0.25-0.53906-0.375-0.92188-0.375-0.40625 0-0.73438 0.11719-0.98438 0.34375-0.25 0.23047-0.40625 0.55859-0.46875 0.98438z"/>
  </symbol>
  <symbol id="f" overflow="visible">
   <path d="m3.9531-2.9531c-0.4375 0-0.76562 0.074219-0.98438 0.21875-0.21875 0.14844-0.32812 0.36719-0.32812 0.65625 0 0.27344 0.085937 0.48438 0.26562 0.64062 0.17578 0.14844 0.42188 0.21875 0.73438 0.21875 0.39453 0 0.72656-0.14062 1-0.42188 0.26953-0.28906 0.40625-0.64844 0.40625-1.0781v-0.23438zm3.2031-0.79688v3.75h-2.1094v-0.96875c-0.28125 0.39844-0.60156 0.6875-0.95312 0.875-0.35547 0.17578-0.78125 0.26562-1.2812 0.26562-0.67969 0-1.2305-0.19531-1.6562-0.59375-0.42969-0.39453-0.64062-0.91016-0.64062-1.5469 0-0.76953 0.26562-1.332 0.79688-1.6875 0.53125-0.36328 1.3633-0.54688 2.5-0.54688h1.2344v-0.17188c0-0.33203-0.13281-0.57031-0.39062-0.71875-0.26172-0.15625-0.67188-0.23438-1.2344-0.23438-0.44922 0-0.86719 0.046875-1.25 0.14062-0.38672 0.085938-0.74609 0.21484-1.0781 0.39062v-1.5938c0.44531-0.11328 0.89453-0.19531 1.3438-0.25 0.45703-0.0625 0.91406-0.09375 1.375-0.09375 1.1758 0 2.0234 0.23438 2.5469 0.70312 0.53125 0.46875 0.79688 1.2305 0.79688 2.2812z"/>
  </symbol>
  <symbol id="d" overflow="visible">
   <path d="m3.2969-8.4375v1.8594h2.1719v1.5156h-2.1719v2.7812c0 0.30469 0.0625 0.51172 0.1875 0.625 0.125 0.10547 0.36328 0.15625 0.71875 0.15625h1.0781v1.5h-1.7969c-0.83594 0-1.4219-0.17188-1.7656-0.51562s-0.51562-0.92969-0.51562-1.7656v-2.7812h-1.0469v-1.5156h1.0469v-1.8594z"/>
  </symbol>
  <symbol id="l" overflow="visible">
   <path d="m5.4844-5.6094v-3.5156h2.1094v9.125h-2.1094v-0.95312c-0.29297 0.38672-0.61719 0.67188-0.96875 0.85938-0.34375 0.17578-0.74609 0.26562-1.2031 0.26562-0.8125 0-1.4805-0.32031-2-0.96875-0.51172-0.64453-0.76562-1.4727-0.76562-2.4844 0-1.0078 0.25391-1.8359 0.76562-2.4844 0.51953-0.64453 1.1875-0.96875 2-0.96875 0.45703 0 0.85938 0.09375 1.2031 0.28125 0.35156 0.17969 0.67578 0.46094 0.96875 0.84375zm-1.3906 4.25c0.44531 0 0.78906-0.16016 1.0312-0.48438 0.23828-0.33203 0.35938-0.8125 0.35938-1.4375s-0.12109-1.0977-0.35938-1.4219c-0.24219-0.33203-0.58594-0.5-1.0312-0.5-0.44922 0-0.79297 0.16797-1.0312 0.5-0.23047 0.32422-0.34375 0.79688-0.34375 1.4219s0.11328 1.1055 0.34375 1.4375c0.23828 0.32422 0.58203 0.48438 1.0312 0.48438z"/>
  </symbol>
  <symbol id="k" overflow="visible">
   <path d="m4.5-1.3594c0.45703 0 0.80078-0.16016 1.0312-0.48438 0.23828-0.33203 0.35938-0.8125 0.35938-1.4375s-0.12109-1.0977-0.35938-1.4219c-0.23047-0.33203-0.57422-0.5-1.0312-0.5-0.44922 0-0.79297 0.16797-1.0312 0.5-0.24219 0.32422-0.35938 0.79688-0.35938 1.4219s0.11719 1.1055 0.35938 1.4375c0.23828 0.32422 0.58203 0.48438 1.0312 0.48438zm-1.3906-4.25c0.28906-0.38281 0.60938-0.66406 0.95312-0.84375 0.35156-0.1875 0.75781-0.28125 1.2188-0.28125 0.8125 0 1.4766 0.32422 2 0.96875 0.51953 0.64844 0.78125 1.4766 0.78125 2.4844 0 1.0117-0.26172 1.8398-0.78125 2.4844-0.52344 0.64844-1.1875 0.96875-2 0.96875-0.46094 0-0.86719-0.089844-1.2188-0.26562-0.34375-0.1875-0.66406-0.47266-0.95312-0.85938v0.95312h-2.0938v-9.125h2.0938z"/>
  </symbol>
  <symbol id="j" overflow="visible">
   <path d="m0.14062-6.5781h2.1094l1.7656 4.4688 1.5-4.4688h2.0938l-2.75 7.2031c-0.28125 0.72656-0.60938 1.2383-0.98438 1.5312-0.36719 0.28906-0.85156 0.4375-1.4531 0.4375h-1.2188v-1.375h0.65625c0.35156 0 0.60938-0.058594 0.76562-0.17188 0.16406-0.11719 0.29688-0.32031 0.39062-0.60938l0.0625-0.1875z"/>
  </symbol>
  <symbol id="i" overflow="visible">
   <path d="m1.0156-9.125h2.0938v4.9688l2.4219-2.4219h2.4375l-3.2031 3.0156 3.4531 3.5625h-2.5469l-2.5625-2.7344v2.7344h-2.0938z"/>
  </symbol>
  <symbol id="h" overflow="visible">
   <path d="m7.0938-5.4844c0.26953-0.40625 0.58594-0.71094 0.95312-0.92188 0.36328-0.21875 0.76562-0.32812 1.2031-0.32812 0.75781 0 1.332 0.23438 1.7188 0.70312 0.39453 0.46875 0.59375 1.1484 0.59375 2.0312v4h-2.1094v-3.4219c0.007813-0.050781 0.015625-0.10156 0.015625-0.15625v-0.23438c0-0.46875-0.070312-0.80469-0.20312-1.0156-0.13672-0.20703-0.35938-0.3125-0.67188-0.3125-0.39844 0-0.70312 0.16797-0.92188 0.5-0.21875 0.32422-0.32812 0.79297-0.32812 1.4062v3.2344h-2.1094v-3.4219c0-0.72656-0.0625-1.1953-0.1875-1.4062-0.125-0.20703-0.35156-0.3125-0.67188-0.3125-0.40625 0-0.71875 0.16797-0.9375 0.5-0.21875 0.32422-0.32812 0.79297-0.32812 1.4062v3.2344h-2.1094v-6.5781h2.1094v0.96875c0.25781-0.375 0.55469-0.65625 0.89062-0.84375 0.33203-0.1875 0.70312-0.28125 1.1094-0.28125 0.44531 0 0.84375 0.10938 1.1875 0.32812 0.35156 0.21875 0.61719 0.52734 0.79688 0.92188z"/>
  </symbol>
  <symbol id="c" overflow="visible">
   <path d="m4.1406-5.2344c-0.46875 0-0.82812 0.17188-1.0781 0.51562-0.24219 0.33594-0.35938 0.8125-0.35938 1.4375 0 0.63672 0.11719 1.1211 0.35938 1.4531 0.25 0.33594 0.60938 0.5 1.0781 0.5 0.45703 0 0.80469-0.16406 1.0469-0.5 0.23828-0.33203 0.35938-0.81641 0.35938-1.4531 0-0.625-0.12109-1.1016-0.35938-1.4375-0.24219-0.34375-0.58984-0.51562-1.0469-0.51562zm0-1.5c1.125 0 2.0039 0.30859 2.6406 0.92188 0.63281 0.60547 0.95312 1.4492 0.95312 2.5312 0 1.0859-0.32031 1.9336-0.95312 2.5469-0.63672 0.60547-1.5156 0.90625-2.6406 0.90625-1.1367 0-2.0273-0.30078-2.6719-0.90625-0.63672-0.61328-0.95312-1.4609-0.95312-2.5469 0-1.082 0.31641-1.9258 0.95312-2.5312 0.64453-0.61328 1.5352-0.92188 2.6719-0.92188z"/>
  </symbol>
  <symbol id="v" overflow="visible">
   <path d="m0.1875-6.5781h2.0938l1.6406 4.5469 1.625-4.5469h2.1094l-2.5938 6.5781h-2.2969z"/>
  </symbol>
  <symbol id="u" overflow="visible">
   <path d="m1.0156-6.5781h2.0938v6.5781h-2.0938zm0-2.5469h2.0938v1.7031h-2.0938z"/>
  </symbol>
  <symbol id="g" overflow="visible">
   <path d="m6.3125-6.3594v1.7031c-0.28125-0.19531-0.57031-0.34375-0.85938-0.4375-0.28125-0.09375-0.57812-0.14062-0.89062-0.14062-0.58594 0-1.043 0.17188-1.375 0.51562-0.32422 0.34375-0.48438 0.82422-0.48438 1.4375 0 0.61719 0.16016 1.0938 0.48438 1.4375 0.33203 0.34375 0.78906 0.51562 1.375 0.51562 0.33203 0 0.64453-0.046875 0.9375-0.14062 0.28906-0.10156 0.5625-0.25 0.8125-0.4375v1.7188c-0.32422 0.11719-0.65625 0.20312-1 0.26562-0.33594 0.0625-0.67188 0.09375-1.0156 0.09375-1.1875 0-2.1172-0.30078-2.7812-0.90625-0.66797-0.61328-1-1.4609-1-2.5469 0-1.082 0.33203-1.9258 1-2.5312 0.66406-0.61328 1.5938-0.92188 2.7812-0.92188 0.34375 0 0.67969 0.03125 1.0156 0.09375 0.33203 0.0625 0.66406 0.15625 1 0.28125z"/>
  </symbol>
  <symbol id="t" overflow="visible">
   <path d="m1.4062-1.5625h2v-5.6562l-2.0469 0.42188v-1.5469l2.0312-0.42188h2.1406v7.2031h2v1.5625h-6.125z"/>
  </symbol>
  <symbol id="e" overflow="visible">
   <path d="m5.5312-4.3906c0-1.0938-0.10547-1.8633-0.3125-2.3125-0.21094-0.44531-0.55469-0.67188-1.0312-0.67188-0.49219 0-0.83984 0.22656-1.0469 0.67188-0.21094 0.44922-0.3125 1.2188-0.3125 2.3125 0 1.1055 0.10156 1.8867 0.3125 2.3438 0.20703 0.46094 0.55469 0.6875 1.0469 0.6875 0.47656 0 0.82031-0.22656 1.0312-0.6875 0.20703-0.45703 0.3125-1.2383 0.3125-2.3438zm2.25 0.015625c0 1.4609-0.3125 2.5859-0.9375 3.375-0.625 0.78125-1.5117 1.1719-2.6562 1.1719-1.1562 0-2.0469-0.39062-2.6719-1.1719-0.625-0.78906-0.9375-1.9141-0.9375-3.375 0-1.4453 0.3125-2.5664 0.9375-3.3594 0.625-0.78906 1.5156-1.1875 2.6719-1.1875 1.1445 0 2.0312 0.39844 2.6562 1.1875 0.625 0.79297 0.9375 1.9141 0.9375 3.3594z"/>
  </symbol>
  <symbol id="s" overflow="visible">
   <path d="m5.3281-9.125v1.375h-1.1562c-0.30469 0-0.51172 0.058594-0.625 0.17188-0.11719 0.10547-0.17188 0.28906-0.17188 0.54688v0.45312h1.7969v1.5156h-1.7969v5.0625h-2.1094v-5.0625h-1.0312v-1.5156h1.0312v-0.45312c0-0.71875 0.19531-1.2422 0.59375-1.5781 0.40625-0.34375 1.0234-0.51562 1.8594-0.51562z"/>
  </symbol>
  <symbol id="r" overflow="visible">
   <path d="m7.6094-4v4h-2.1094v-3.0469c0-0.57031-0.015625-0.96875-0.046875-1.1875-0.023437-0.21875-0.0625-0.37891-0.125-0.48438-0.085937-0.13281-0.19922-0.23828-0.34375-0.3125-0.13672-0.070312-0.29297-0.10938-0.46875-0.10938-0.4375 0-0.78125 0.17188-1.0312 0.51562-0.25 0.33594-0.375 0.79688-0.375 1.3906v3.2344h-2.0938v-9.125h2.0938v3.5156c0.3125-0.38281 0.64453-0.66406 1-0.84375 0.36328-0.1875 0.75781-0.28125 1.1875-0.28125 0.75781 0 1.332 0.23438 1.7188 0.70312 0.39453 0.46875 0.59375 1.1484 0.59375 2.0312z"/>
  </symbol>
  <symbol id="q" overflow="visible">
   <path d="m1.1094-8.7656h2.5156l3.1875 6.0156v-6.0156h2.1406v8.7656h-2.5156l-3.1875-6.0156v6.0156h-2.1406z"/>
  </symbol>
  <symbol id="p" overflow="visible">
   <path d="m0.9375-2.5625v-4.0156h2.1094v0.67188 1.3438 1.0625c0 0.53125 0.007813 0.91797 0.03125 1.1562 0.03125 0.23047 0.078125 0.39844 0.14062 0.5 0.082031 0.13672 0.19141 0.24219 0.32812 0.3125 0.14453 0.074219 0.30469 0.10938 0.48438 0.10938 0.4375 0 0.78125-0.16406 1.0312-0.5 0.25-0.33203 0.375-0.80078 0.375-1.4062v-3.25h2.1094v6.5781h-2.1094v-0.95312c-0.3125 0.38672-0.64844 0.67188-1 0.85938-0.35547 0.17578-0.74609 0.26562-1.1719 0.26562-0.76172 0-1.3398-0.22656-1.7344-0.6875-0.39844-0.46875-0.59375-1.1484-0.59375-2.0469z"/>
  </symbol>
  <symbol id="o" overflow="visible">
   <path d="m7.6094-4v4h-2.1094v-3.0625c0-0.5625-0.015625-0.95312-0.046875-1.1719-0.023437-0.21875-0.0625-0.37891-0.125-0.48438-0.085937-0.13281-0.19922-0.23828-0.34375-0.3125-0.13672-0.070312-0.29297-0.10938-0.46875-0.10938-0.4375 0-0.78125 0.17188-1.0312 0.51562-0.25 0.33594-0.375 0.79688-0.375 1.3906v3.2344h-2.0938v-6.5781h2.0938v0.96875c0.3125-0.38281 0.64453-0.66406 1-0.84375 0.36328-0.1875 0.75781-0.28125 1.1875-0.28125 0.75781 0 1.332 0.23438 1.7188 0.70312 0.39453 0.46875 0.59375 1.1484 0.59375 2.0312z"/>
  </symbol>
  <symbol id="n" overflow="visible">
   <path d="m1.1094-8.7656h3.75c1.1133 0 1.9688 0.25 2.5625 0.75 0.59375 0.49219 0.89062 1.1953 0.89062 2.1094 0 0.91797-0.29688 1.625-0.89062 2.125-0.59375 0.49219-1.4492 0.73438-2.5625 0.73438h-1.5v3.0469h-2.25zm2.25 1.6406v2.4531h1.25c0.4375 0 0.77344-0.10156 1.0156-0.3125 0.23828-0.21875 0.35938-0.52344 0.35938-0.92188 0-0.38281-0.12109-0.67969-0.35938-0.89062-0.24219-0.21875-0.57812-0.32812-1.0156-0.32812z"/>
  </symbol>
  <symbol id="m" overflow="visible">
   <path d="m1.0156-6.5781h2.0938v6.4531c0 0.88281-0.21484 1.5547-0.64062 2.0156-0.41797 0.46875-1.0273 0.70312-1.8281 0.70312h-1.0469v-1.375h0.375c0.39453 0 0.66406-0.09375 0.8125-0.28125 0.15625-0.17969 0.23438-0.53125 0.23438-1.0625zm0-2.5469h2.0938v1.7031h-2.0938z"/>
  </symbol>
 </defs>
 <g>
  <path d="m630 52.875-52.875-52.875-225.92 225.92-228.33-225.92-52.875 52.875 225.92 228.33-225.92 225.92 52.875 52.875 228.33-225.92 225.92 225.92 52.875-52.875-225.92-225.92z" fill-rule="evenodd"/>
  <use x="70" y="596.050781" xlink:href="#w"/>
  <use x="78.820312" y="596.050781" xlink:href="#b"/>
  <use x="84.746094" y="596.050781" xlink:href="#a"/>
  <use x="92.894531" y="596.050781" xlink:href="#f"/>
  <use x="101.003906" y="596.050781" xlink:href="#d"/>
  <use x="106.75" y="596.050781" xlink:href="#a"/>
  <use x="114.898438" y="596.050781" xlink:href="#l"/>
  <use x="127.6875" y="596.050781" xlink:href="#k"/>
  <use x="136.289062" y="596.050781" xlink:href="#j"/>
  <use x="148.304688" y="596.050781" xlink:href="#i"/>
  <use x="156.296875" y="596.050781" xlink:href="#f"/>
  <use x="164.40625" y="596.050781" xlink:href="#b"/>
  <use x="170.332031" y="596.050781" xlink:href="#a"/>
  <use x="178.484375" y="596.050781" xlink:href="#a"/>
  <use x="186.632812" y="596.050781" xlink:href="#h"/>
  <use x="199.15625" y="596.050781" xlink:href="#c"/>
  <use x="207.410156" y="596.050781" xlink:href="#v"/>
  <use x="215.246094" y="596.050781" xlink:href="#u"/>
  <use x="219.363281" y="596.050781" xlink:href="#g"/>
  <use x="226.488281" y="596.050781" xlink:href="#t"/>
  <use x="234.847656" y="596.050781" xlink:href="#e"/>
  <use x="243.210938" y="596.050781" xlink:href="#e"/>
  <use x="251.570312" y="596.050781" xlink:href="#e"/>
  <use x="70" y="608.070312" xlink:href="#s"/>
  <use x="75.226562" y="608.070312" xlink:href="#b"/>
  <use x="81.15625" y="608.070312" xlink:href="#c"/>
  <use x="89.410156" y="608.070312" xlink:href="#h"/>
  <use x="106.117187" y="608.070312" xlink:href="#d"/>
  <use x="111.859375" y="608.070312" xlink:href="#r"/>
  <use x="120.414062" y="608.070312" xlink:href="#a"/>
  <use x="132.75" y="608.070312" xlink:href="#q"/>
  <use x="142.808594" y="608.070312" xlink:href="#c"/>
  <use x="151.0625" y="608.070312" xlink:href="#p"/>
  <use x="159.617188" y="608.070312" xlink:href="#o"/>
  <use x="172.355469" y="608.070312" xlink:href="#n"/>
  <use x="181.164062" y="608.070312" xlink:href="#b"/>
  <use x="187.089844" y="608.070312" xlink:href="#c"/>
  <use x="195.347656" y="608.070312" xlink:href="#m"/>
  <use x="199.464844" y="608.070312" xlink:href="#a"/>
  <use x="207.617188" y="608.070312" xlink:href="#g"/>
  <use x="214.738281" y="608.070312" xlink:href="#d"/>
 </g>
</svg>
